<mxfile host="app.diagrams.net" agent="Mozilla/5.0 (Macintosh; Intel Mac OS X 10_15_7) AppleWebKit/537.36 (KHTML, like Gecko) Chrome/135.0.0.0 Safari/537.36" version="27.0.3" pages="2">
  <diagram name="12.1" id="YTiApTUe0Ti74qzOMq3D">
    <mxGraphModel dx="947" dy="569" grid="1" gridSize="10" guides="1" tooltips="1" connect="1" arrows="1" fold="1" page="1" pageScale="1" pageWidth="850" pageHeight="1100" math="0" shadow="0">
      <root>
        <mxCell id="0" />
        <mxCell id="1" parent="0" />
        <mxCell id="x7CPs7mgxBJ3FO-aDUnE-1" value="API" style="rounded=0;whiteSpace=wrap;html=1;fillColor=#dae8fc;strokeColor=#6c8ebf;" vertex="1" parent="1">
          <mxGeometry x="420" y="210" width="120" height="60" as="geometry" />
        </mxCell>
        <mxCell id="x7CPs7mgxBJ3FO-aDUnE-3" style="edgeStyle=orthogonalEdgeStyle;rounded=1;orthogonalLoop=1;jettySize=auto;html=1;fillColor=#d5e8d4;strokeColor=#82b366;strokeWidth=2;curved=0;" edge="1" parent="1" source="x7CPs7mgxBJ3FO-aDUnE-2" target="x7CPs7mgxBJ3FO-aDUnE-1">
          <mxGeometry relative="1" as="geometry">
            <Array as="points">
              <mxPoint x="200" y="192" />
              <mxPoint x="200" y="240" />
            </Array>
          </mxGeometry>
        </mxCell>
        <mxCell id="x7CPs7mgxBJ3FO-aDUnE-2" value="Authenticated user" style="sketch=0;aspect=fixed;pointerEvents=1;shadow=0;dashed=0;html=1;strokeColor=none;labelPosition=center;verticalLabelPosition=bottom;verticalAlign=top;align=center;fillColor=#00188D;shape=mxgraph.azure.laptop" vertex="1" parent="1">
          <mxGeometry x="110" y="177" width="50" height="30" as="geometry" />
        </mxCell>
        <mxCell id="x7CPs7mgxBJ3FO-aDUnE-4" value="GET /courses/1/lessons/1&lt;div&gt;Authorization: Bearer ey...&lt;/div&gt;" style="text;html=1;align=center;verticalAlign=middle;whiteSpace=wrap;rounded=0;strokeColor=#82b366;dashed=1;fillColor=#d5e8d4;" vertex="1" parent="1">
          <mxGeometry x="220" y="190" width="170" height="45" as="geometry" />
        </mxCell>
        <mxCell id="x7CPs7mgxBJ3FO-aDUnE-5" value="" style="shape=image;html=1;verticalAlign=top;verticalLabelPosition=bottom;labelBackgroundColor=#ffffff;imageAspect=0;aspect=fixed;image=https://cdn4.iconfinder.com/data/icons/web-ui-color/128/Checkmark-128.png" vertex="1" parent="1">
          <mxGeometry x="380" y="207" width="17" height="17" as="geometry" />
        </mxCell>
        <mxCell id="x7CPs7mgxBJ3FO-aDUnE-7" value="Unauthenticated user" style="sketch=0;aspect=fixed;pointerEvents=1;shadow=0;dashed=0;html=1;strokeColor=none;labelPosition=center;verticalLabelPosition=bottom;verticalAlign=top;align=center;fillColor=#00188D;shape=mxgraph.azure.laptop" vertex="1" parent="1">
          <mxGeometry x="110" y="275" width="50" height="30" as="geometry" />
        </mxCell>
        <mxCell id="x7CPs7mgxBJ3FO-aDUnE-9" value="GET /courses/1/lessons/1" style="text;html=1;align=center;verticalAlign=middle;whiteSpace=wrap;rounded=0;strokeColor=#b85450;dashed=1;fillColor=#f8cecc;" vertex="1" parent="1">
          <mxGeometry x="220" y="250" width="170" height="40" as="geometry" />
        </mxCell>
        <mxCell id="x7CPs7mgxBJ3FO-aDUnE-11" value="" style="shape=image;html=1;verticalAlign=top;verticalLabelPosition=bottom;labelBackgroundColor=#ffffff;imageAspect=0;aspect=fixed;image=https://cdn1.iconfinder.com/data/icons/CrystalClear/16x16/actions/gg_ignored.png" vertex="1" parent="1">
          <mxGeometry x="382" y="259" width="16" height="16" as="geometry" />
        </mxCell>
        <mxCell id="x7CPs7mgxBJ3FO-aDUnE-12" style="edgeStyle=orthogonalEdgeStyle;rounded=1;orthogonalLoop=1;jettySize=auto;html=1;entryX=-0.003;entryY=0.589;entryDx=0;entryDy=0;entryPerimeter=0;fillColor=#f8cecc;strokeColor=#b85450;strokeWidth=2;curved=0;" edge="1" parent="1" source="x7CPs7mgxBJ3FO-aDUnE-7" target="x7CPs7mgxBJ3FO-aDUnE-1">
          <mxGeometry relative="1" as="geometry">
            <Array as="points">
              <mxPoint x="200" y="290" />
              <mxPoint x="200" y="245" />
            </Array>
          </mxGeometry>
        </mxCell>
      </root>
    </mxGraphModel>
  </diagram>
  <diagram id="ZR0XCQf0cD9S-97wYYR5" name="12.2">
    <mxGraphModel dx="1042" dy="626" grid="1" gridSize="10" guides="1" tooltips="1" connect="1" arrows="1" fold="1" page="1" pageScale="1" pageWidth="850" pageHeight="1100" math="0" shadow="0">
      <root>
        <mxCell id="0" />
        <mxCell id="1" parent="0" />
        <mxCell id="EbnGYY1hlEv5AWaO1sWR-17" style="edgeStyle=orthogonalEdgeStyle;rounded=0;orthogonalLoop=1;jettySize=auto;html=1;entryX=1;entryY=0.5;entryDx=0;entryDy=0;fillColor=#dae8fc;strokeColor=#6c8ebf;strokeWidth=2;" edge="1" parent="1" source="EbnGYY1hlEv5AWaO1sWR-1" target="EbnGYY1hlEv5AWaO1sWR-5">
          <mxGeometry relative="1" as="geometry" />
        </mxCell>
        <mxCell id="EbnGYY1hlEv5AWaO1sWR-1" value="API" style="rounded=0;whiteSpace=wrap;html=1;fillColor=#dae8fc;strokeColor=#6c8ebf;" vertex="1" parent="1">
          <mxGeometry x="480" y="110" width="120" height="60" as="geometry" />
        </mxCell>
        <mxCell id="EbnGYY1hlEv5AWaO1sWR-15" style="edgeStyle=orthogonalEdgeStyle;rounded=1;orthogonalLoop=1;jettySize=auto;html=1;entryX=0;entryY=0.5;entryDx=0;entryDy=0;fillColor=#fff2cc;strokeColor=#d6b656;strokeWidth=2;curved=0;" edge="1" parent="1" source="EbnGYY1hlEv5AWaO1sWR-2" target="EbnGYY1hlEv5AWaO1sWR-4">
          <mxGeometry relative="1" as="geometry" />
        </mxCell>
        <mxCell id="EbnGYY1hlEv5AWaO1sWR-19" style="edgeStyle=orthogonalEdgeStyle;rounded=1;orthogonalLoop=1;jettySize=auto;html=1;entryX=0;entryY=0.5;entryDx=0;entryDy=0;fillColor=#fff2cc;strokeColor=#d6b656;strokeWidth=2;curved=0;" edge="1" parent="1" source="EbnGYY1hlEv5AWaO1sWR-2" target="EbnGYY1hlEv5AWaO1sWR-6">
          <mxGeometry relative="1" as="geometry" />
        </mxCell>
        <mxCell id="EbnGYY1hlEv5AWaO1sWR-2" value="joe@apithreats.com" style="sketch=0;aspect=fixed;pointerEvents=1;shadow=0;dashed=0;html=1;strokeColor=none;labelPosition=center;verticalLabelPosition=bottom;verticalAlign=top;align=center;fillColor=#00188D;shape=mxgraph.azure.laptop" vertex="1" parent="1">
          <mxGeometry x="50" y="125" width="50" height="30" as="geometry" />
        </mxCell>
        <mxCell id="EbnGYY1hlEv5AWaO1sWR-16" style="edgeStyle=orthogonalEdgeStyle;rounded=1;orthogonalLoop=1;jettySize=auto;html=1;entryX=0;entryY=0.25;entryDx=0;entryDy=0;curved=0;fillColor=#fff2cc;strokeColor=#d6b656;strokeWidth=2;" edge="1" parent="1" source="EbnGYY1hlEv5AWaO1sWR-4" target="EbnGYY1hlEv5AWaO1sWR-1">
          <mxGeometry relative="1" as="geometry" />
        </mxCell>
        <mxCell id="EbnGYY1hlEv5AWaO1sWR-4" value="POST /students/register&lt;div&gt;{&quot;email&quot;: joe1@apithreats.com&quot;...}&lt;/div&gt;" style="text;html=1;align=left;verticalAlign=middle;whiteSpace=wrap;rounded=0;spacingTop=0;spacing=10;strokeColor=#d6b656;dashed=1;fillColor=#fff2cc;" vertex="1" parent="1">
          <mxGeometry x="200" y="40" width="200" height="60" as="geometry" />
        </mxCell>
        <mxCell id="EbnGYY1hlEv5AWaO1sWR-5" value="Status code: 201&lt;div&gt;{&quot;coupon_code&quot;: &quot;&lt;span style=&quot;background-color: transparent;&quot;&gt;3ad3ae88&quot;...}&lt;/span&gt;&lt;/div&gt;" style="text;html=1;align=left;verticalAlign=middle;whiteSpace=wrap;rounded=0;spacingTop=0;spacing=10;strokeColor=#6c8ebf;dashed=1;fillColor=#dae8fc;" vertex="1" parent="1">
          <mxGeometry x="200" y="110" width="200" height="60" as="geometry" />
        </mxCell>
        <mxCell id="EbnGYY1hlEv5AWaO1sWR-20" style="edgeStyle=orthogonalEdgeStyle;rounded=1;orthogonalLoop=1;jettySize=auto;html=1;entryX=0;entryY=0.75;entryDx=0;entryDy=0;curved=0;fillColor=#fff2cc;strokeColor=#d6b656;strokeWidth=2;" edge="1" parent="1" source="EbnGYY1hlEv5AWaO1sWR-6" target="EbnGYY1hlEv5AWaO1sWR-1">
          <mxGeometry relative="1" as="geometry" />
        </mxCell>
        <mxCell id="EbnGYY1hlEv5AWaO1sWR-6" value="POST /courses/1/register&lt;div&gt;{&quot;coupon_code&quot;: &quot;&lt;span style=&quot;background-color: transparent;&quot;&gt;3ad3ae88&lt;/span&gt;&lt;span style=&quot;background-color: transparent; color: light-dark(rgb(0, 0, 0), rgb(255, 255, 255));&quot;&gt;&quot;...}&lt;/span&gt;&lt;/div&gt;" style="text;html=1;align=left;verticalAlign=middle;whiteSpace=wrap;rounded=0;spacingTop=0;spacing=10;strokeColor=#d6b656;dashed=1;fillColor=#fff2cc;" vertex="1" parent="1">
          <mxGeometry x="200" y="180" width="200" height="60" as="geometry" />
        </mxCell>
        <mxCell id="EbnGYY1hlEv5AWaO1sWR-18" style="edgeStyle=orthogonalEdgeStyle;rounded=0;orthogonalLoop=1;jettySize=auto;html=1;entryX=0.92;entryY=0.5;entryDx=0;entryDy=0;entryPerimeter=0;fillColor=#dae8fc;strokeColor=#6c8ebf;strokeWidth=2;" edge="1" parent="1" source="EbnGYY1hlEv5AWaO1sWR-5" target="EbnGYY1hlEv5AWaO1sWR-2">
          <mxGeometry relative="1" as="geometry" />
        </mxCell>
      </root>
    </mxGraphModel>
  </diagram>
</mxfile>
